<?xml version="1.0" encoding="utf-8"?>
<!-- Svg Vector Icons : http://www.onlinewebfonts.com/icon -->
<!DOCTYPE svg PUBLIC "-//W3C//DTD SVG 1.1//EN" "http://www.w3.org/Graphics/SVG/1.1/DTD/svg11.dtd">
<svg version="1.1" xmlns="http://www.w3.org/2000/svg" xmlns:xlink="http://www.w3.org/1999/xlink" x="0px" y="0px" viewBox="0 0 1000 1000" enable-background="new 0 0 1000 1000" xml:space="preserve">
<metadata> Svg Vector Icons : http://www.onlinewebfonts.com/icon </metadata>
<g><path d="M161.7,922.2c8.8-6.9,17.7-13.9,26.5-20.6c8.2-7.6,15.6-16,23.1-24.2c-81.2-80.2-133.6-194-133.6-309.6c0-224.7,173.8-422.3,422.3-422.3c248.5,0,424.2,206.6,422.3,429.1c-1.1,124.4-50.5,219.7-132.2,301.3l56.2,38.1C935.1,825.4,990,703,990,567.7C990,297,770.7,77.8,500.1,77.8C229.5,77.8,10,297.5,10,567.9C10,707.4,68.3,833,161.7,922.2z"/><path d="M507.9,538c-1.1,0.4-2.3,1.3-3.4,1.7c-16,6.3-29.3,19.4-34.7,37c-9.7,30.9,7.6,64,38.5,73.7c16.4,5.1,33.5,2.5,47.1-5.5c2.1-0.8,4.2-1.7,6.5-3.4l243.3-173c7.2-5.1,25-24,21.9-32.6c-3.8-10.3-29.9-5.9-40.2-2.1L507.9,538z"/><path d="M478.9,185.1h42.1v117.8h-42.1V185.1z"/><path d="M116.9,530.6h117.8v42.1H116.9V530.6z"/><path d="M764.6,530.6h117.8v42.1H764.6V530.6z"/></g>
</svg>